<svg  className="flex-shrink-0  w-24 h-24 text-gray-600 dark:text-yellow-400" 
fill="currentColor" data-name="Layer 1" xmlns="http://www.w3.org/2000/svg" 
viewBox="0 0 105.29 19.72">
<path d="M13.93,24.29a2,2,0,0,1-.44-.05,1.62,1.62,0,0,1-.48-.17,1.53,1.53,0,0,1-.4-.31.57.57,0,0,1-.17-.4,1.11,1.11,0,0,1,.33-.68,2.09,2.09,0,0,1,1.09-.61A11.7,11.7,0,0,1,16,21.78a21.87,21.87,0,0,1,2.29,0c.77,0,1.52.08,2.26.14S22,22,22.67,22a1,1,0,0,1,.73.21.76.76,0,0,1,.17.48,1.08,1.08,0,0,1-.55,1,1.82,1.82,0,0,1-1.11.32c-.4,0-.81,0-1.24,0H19.34c0,.65,0,1.37.09,2.17s.12,1.6.19,2.41.14,1.59.22,2.33.16,1.36.23,1.87a.57.57,0,0,1-.12.5.72.72,0,0,1-.58.23c-.48,0-.84-.3-1.07-.9a16.8,16.8,0,0,1-.94-3.89,9.92,9.92,0,0,1-3.68,1.42A7.55,7.55,0,0,1,10.44,30a4.67,4.67,0,0,1-2.32-1.39,3.49,3.49,0,0,1-.89-2.41,9.64,9.64,0,0,1,.49-2.91,13,13,0,0,1,1.38-3,14,14,0,0,1,2.14-2.65A8.44,8.44,0,0,1,14,15.8a2.23,2.23,0,0,1,1-.06,2.4,2.4,0,0,1,.86.35,3.58,3.58,0,0,1,.73.62,6.88,6.88,0,0,1,.57.72,1,1,0,0,1,.21.52.63.63,0,0,1-.21.52.59.59,0,0,1-.9-.07,2.85,2.85,0,0,0-1-.89,1.3,1.3,0,0,0-1.09.3,8.46,8.46,0,0,0-1.53,1.47,16.39,16.39,0,0,0-1.54,2.19A12.93,12.93,0,0,0,10,23.93a5.31,5.31,0,0,0-.28,2.34,1.58,1.58,0,0,0,1.05,1.34,5,5,0,0,0,2.13.36,7.76,7.76,0,0,0,2.39-.45,4.65,4.65,0,0,0,1.86-1.11c0-.39-.05-.79-.07-1.2s0-.8,0-1.19l-1.52.12C15,24.17,14.46,24.23,13.93,24.29Z" transform="translate(-6.98 -15.44)" stroke="currentColor" strokeMiterlimit="10" strokeWidth="0.5"/><path d="M28.25,17.22q.18,3.78.59,7.82c.28,2.69.58,5.27.91,7.72.06,1-.21,1.54-.84,1.56a.65.65,0,0,1-.41-.16,1.46,1.46,0,0,1-.38-.4,3.84,3.84,0,0,1-.33-.52,1.54,1.54,0,0,1-.2-.48c-.18-1.18-.35-2.43-.52-3.75s-.3-2.64-.43-4-.24-2.63-.33-3.9-.15-2.44-.17-3.51a6.23,6.23,0,0,1,.24-1.4.67.67,0,0,1,.73-.54,1,1,0,0,1,.85.47A2.28,2.28,0,0,1,28.25,17.22Z" transform="translate(-6.98 -15.44)" stroke="currentColor" strokeMiterlimit="10" strokeWidth="0.5"/><path d="M41,25.3A12.25,12.25,0,0,1,34.71,27a3,3,0,0,0,.69,1.92,2.48,2.48,0,0,0,1.56.85,3.58,3.58,0,0,0,1.13,0,4.6,4.6,0,0,0,1.07-.33,5.36,5.36,0,0,0,.92-.51,6.6,6.6,0,0,0,.73-.55,1.57,1.57,0,0,1,.66-.37.91.91,0,0,1,.52,0c.32.11.44.46.35,1a5.42,5.42,0,0,1-3.92,2.88,5.1,5.1,0,0,1-2.29-.11A4.83,4.83,0,0,1,34,30.54a5.43,5.43,0,0,1-1.21-1.87,8.15,8.15,0,0,1-.52-2.22,5.18,5.18,0,0,1,.19-2.05,4.84,4.84,0,0,1,.92-1.72A4.79,4.79,0,0,1,35,21.45a5.27,5.27,0,0,1,2.18-.55,4.84,4.84,0,0,1,2.71.55,3.61,3.61,0,0,1,1.7,1.84,1.79,1.79,0,0,1,.16,1.14A1.49,1.49,0,0,1,41,25.3Zm-4-2.36a4.31,4.31,0,0,0-.75.24,3.15,3.15,0,0,0-.73.44,3.66,3.66,0,0,0-.59.59,1.36,1.36,0,0,0-.29.74,9,9,0,0,0,1.3-.1c.47-.07.93-.16,1.39-.26a11.5,11.5,0,0,0,1.24-.36,4.53,4.53,0,0,0,1-.46,1.33,1.33,0,0,0-1-.81A3.79,3.79,0,0,0,37,22.94Z" transform="translate(-6.98 -15.44)" stroke="currentColor" strokeMiterlimit="10" strokeWidth="0.5"/><path d="M47,22c.07.35.14.74.22,1.17s.17.86.26,1.32.18.9.25,1.37.12.9.17,1.31l.9-1.9a15,15,0,0,1,1.06-1.86A7.13,7.13,0,0,1,51.06,22a2.16,2.16,0,0,1,1.41-.55,2.54,2.54,0,0,1,1.92.83,7.35,7.35,0,0,1,1.32,2.07,14.71,14.71,0,0,1,.85,2.58c.21.9.38,1.7.52,2.39a1.15,1.15,0,0,1-.83,1.39c-.33.16-.57.19-.73.07a.63.63,0,0,1-.28-.35A11.8,11.8,0,0,1,54.81,29c-.17-.7-.37-1.4-.59-2.12A11,11,0,0,0,53.47,25c-.27-.53-.59-.78-.93-.73s-.79.34-1.11.94-.56,1-.85,1.61S50,28,49.73,28.61l-.82,1.84c-.26.61-.51,1.18-.74,1.68a1.18,1.18,0,0,1-.61.33,1.3,1.3,0,0,1-.75-.05,1.15,1.15,0,0,1-.55-.34.78.78,0,0,1-.21-.49c-.21-1.8-.42-3.45-.64-4.93s-.5-3-.85-4.54a2.22,2.22,0,0,1-.09-1.27c.11-.31.45-.43,1-.36A1.77,1.77,0,0,1,47,22Z" transform="translate(-6.98 -15.44)" stroke="currentColor" strokeMiterlimit="10" strokeWidth="0.5"/><path d="M61.9,18.08c0,.56,0,1.18,0,1.88s0,1.41,0,2.15,0,1.5,0,2.29,0,1.54,0,2.25a9.53,9.53,0,0,1,.84-1.37,6.2,6.2,0,0,1,1.09-1.19,5.43,5.43,0,0,1,1.28-.84,3.6,3.6,0,0,1,1.48-.31,2.38,2.38,0,0,1,1.54.56A5.05,5.05,0,0,1,69.38,25,11.26,11.26,0,0,1,70.23,27a21.89,21.89,0,0,1,.57,2.29q.23,1.15.33,2.22c.07.7.13,1.31.17,1.82a1.42,1.42,0,0,1-.27.9.85.85,0,0,1-.66.35,1.1,1.1,0,0,1-.68-.37,1.92,1.92,0,0,1-.57-.88,11.31,11.31,0,0,1-.21-1.22q-.1-.8-.24-1.71c-.09-.62-.21-1.23-.35-1.86a12.46,12.46,0,0,0-.5-1.68,3.44,3.44,0,0,0-.71-1.16,1,1,0,0,0-1-.32,2.36,2.36,0,0,0-1.51,1.22A12,12,0,0,0,63.52,29a21.32,21.32,0,0,0-.77,2.67c-.19.9-.34,1.63-.43,2.18a1.74,1.74,0,0,1-.36.85.73.73,0,0,1-.51.23.64.64,0,0,1-.5-.28,3.51,3.51,0,0,1-.42-.67q-.18-.41-.33-.84a3.8,3.8,0,0,1-.17-.74c-.12-1.25-.21-2.45-.28-3.59s-.12-2.3-.15-3.46-.06-2.34-.06-3.55,0-2.52.07-3.9c0-1.16.42-1.68,1.25-1.56a1.06,1.06,0,0,1,.73.6A2.27,2.27,0,0,1,61.9,18.08Z" transform="translate(-6.98 -15.44)" stroke="currentColor" strokeMiterlimit="10" strokeWidth="0.5"/><path d="M76.51,32.9a1.11,1.11,0,0,1-1,1.42,1.16,1.16,0,0,1-1-.35,1.9,1.9,0,0,1-.5-1A2.52,2.52,0,0,1,74,31.75a.86.86,0,0,1,.74-.66A1.19,1.19,0,0,1,76,31.6,2.43,2.43,0,0,1,76.51,32.9Z" transform="translate(-6.98 -15.44)" stroke="currentColor" strokeMiterlimit="10" strokeWidth="0.5"/><path d="M82.79,22.25c0,.37.06.82.12,1.37s.12,1.11.19,1.7.14,1.17.22,1.75.16,1.11.23,1.6l.94-1.88c.37-.74.75-1.45,1.16-2.13a10.85,10.85,0,0,1,1.25-1.74,1.74,1.74,0,0,1,1.16-.71,1.34,1.34,0,0,1,1,.54,5.06,5.06,0,0,1,.82,1.3,14.16,14.16,0,0,1,.61,1.63c.17.58.31,1.09.43,1.53q.14-.45.36-1c.15-.39.32-.78.49-1.18a11.11,11.11,0,0,1,.59-1.2,6.32,6.32,0,0,1,.71-1,2.78,2.78,0,0,1,1-.71,2.28,2.28,0,0,1,.76-.23,2.06,2.06,0,0,1,.75.19,5.9,5.9,0,0,1,.89.51,4.8,4.8,0,0,1,.84.74,4.68,4.68,0,0,1,.65.89,10.29,10.29,0,0,1,.78,2,18.55,18.55,0,0,1,.43,2.12c.09.67.16,1.26.19,1.78s.07.89.09,1.1a1.63,1.63,0,0,1-.11.67.72.72,0,0,1-.38.37,1.19,1.19,0,0,1-.66.12.81.81,0,0,1-.45-.23,1.19,1.19,0,0,1-.27-.39,1.75,1.75,0,0,1-.14-.4c-.07-.54-.15-1.08-.23-1.63s-.17-1.1-.26-1.62a13.51,13.51,0,0,0-.33-1.45c-.13-.45-.26-.85-.4-1.2a2.92,2.92,0,0,0-.22-.36,3.75,3.75,0,0,0-.35-.44c-.13-.14-.25-.25-.36-.35a1.55,1.55,0,0,0-.25-.17c-.23,0-.47.21-.73.64a10.82,10.82,0,0,0-.72,1.55c-.24.6-.45,1.23-.65,1.89s-.34,1.22-.43,1.68a2.1,2.1,0,0,1-.35,1.33,1,1,0,0,1-.73.44,1.45,1.45,0,0,1-.81-.3,1.38,1.38,0,0,1-.57-.67c-.14-.37-.29-.79-.45-1.25s-.33-.94-.51-1.42-.34-1-.52-1.43-.34-.87-.5-1.25c-.32.44-.64.93-1,1.46s-.62,1.08-.91,1.63-.56,1.11-.83,1.65-.51,1-.74,1.44a6.38,6.38,0,0,1-.52.68.91.91,0,0,1-.66.29.94.94,0,0,1-.59-.26,3.32,3.32,0,0,1-.59-.64,4.53,4.53,0,0,1-.51-.87,4.63,4.63,0,0,1-.33-1c-.18-1-.34-2.09-.46-3.28s-.25-2.35-.37-3.48a2.65,2.65,0,0,1,.16-1.1,1.08,1.08,0,0,1,1.65-.5A1.38,1.38,0,0,1,82.79,22.25Z" transform="translate(-6.98 -15.44)" stroke="currentColor" strokeMiterlimit="10" strokeWidth="0.5"/><path d="M110.64,25.3a12.12,12.12,0,0,1-2.91,1.23,12.48,12.48,0,0,1-3.37.44,3.07,3.07,0,0,0,.7,1.92,2.43,2.43,0,0,0,1.56.85,3.59,3.59,0,0,0,1.13,0,4.6,4.6,0,0,0,1.07-.33,5.77,5.77,0,0,0,.92-.51,6.6,6.6,0,0,0,.73-.55,1.57,1.57,0,0,1,.66-.37.92.92,0,0,1,.52,0c.32.11.44.46.35,1a5.47,5.47,0,0,1-1.6,1.89,5.22,5.22,0,0,1-2.32,1,5.1,5.1,0,0,1-2.29-.11,4.77,4.77,0,0,1-2.12-1.21,5.29,5.29,0,0,1-1.21-1.87,7.8,7.8,0,0,1-.52-2.22,5.18,5.18,0,0,1,.19-2.05,4.82,4.82,0,0,1,.91-1.72,4.94,4.94,0,0,1,1.57-1.23,5.27,5.27,0,0,1,2.18-.55,4.84,4.84,0,0,1,2.71.55,3.65,3.65,0,0,1,1.7,1.84,1.85,1.85,0,0,1,.15,1.14A1.45,1.45,0,0,1,110.64,25.3Zm-4-2.36a4.22,4.22,0,0,0-.74.24,3.15,3.15,0,0,0-.73.44,3.3,3.3,0,0,0-.59.59,1.46,1.46,0,0,0-.3.74,8.79,8.79,0,0,0,1.3-.1c.48-.07.94-.16,1.39-.26a11.7,11.7,0,0,0,1.25-.36,4.78,4.78,0,0,0,1-.46,1.33,1.33,0,0,0-1-.81A3.83,3.83,0,0,0,106.65,22.94Z" transform="translate(-6.98 -15.44)" stroke="currentColor" strokeMiterlimit="10" strokeWidth="0.5"/></svg>